<svg xmlns="http://www.w3.org/2000/svg" viewBox="0 0 600 600" width="600" height="600">
  <defs>
    <linearGradient id="sky5" x1="0" y1="0" x2="0" y2="1">
      <stop offset="0%" stop-color="#020818"/>
      <stop offset="50%" stop-color="#0a0a3e"/>
      <stop offset="100%" stop-color="#1a0a4e"/>
    </linearGradient>
    <linearGradient id="water5" x1="0" y1="0" x2="0" y2="1">
      <stop offset="0%" stop-color="#0a0a3e" stop-opacity="0.9"/>
      <stop offset="100%" stop-color="#020818"/>
    </linearGradient>
    <radialGradient id="moon5" cx="50%" cy="50%" r="50%">
      <stop offset="0%" stop-color="#e3f2fd"/>
      <stop offset="100%" stop-color="#bbdefb"/>
    </radialGradient>
  </defs>
  <!-- Sky -->
  <rect width="600" height="600" fill="url(#sky5)"/>
  <!-- Stars -->
  <circle cx="40" cy="30" r="1.5" fill="white" opacity="0.9"/>
  <circle cx="100" cy="55" r="1" fill="white" opacity="0.7"/>
  <circle cx="170" cy="25" r="2" fill="white" opacity="0.8"/>
  <circle cx="260" cy="45" r="1" fill="white" opacity="0.6"/>
  <circle cx="360" cy="20" r="1.5" fill="white" opacity="0.9"/>
  <circle cx="440" cy="50" r="1" fill="white" opacity="0.7"/>
  <circle cx="510" cy="30" r="2" fill="white" opacity="0.8"/>
  <circle cx="570" cy="60" r="1" fill="white" opacity="0.6"/>
  <circle cx="80" cy="90" r="1" fill="white" opacity="0.5"/>
  <circle cx="200" cy="80" r="1.5" fill="white" opacity="0.6"/>
  <circle cx="480" cy="85" r="1" fill="white" opacity="0.7"/>
  <circle cx="550" cy="100" r="1.5" fill="white" opacity="0.5"/>
  <!-- Moon -->
  <circle cx="480" cy="80" r="36" fill="#e3f2fd" opacity="0.15"/>
  <circle cx="480" cy="80" r="28" fill="url(#moon5)"/>
  <circle cx="490" cy="72" r="23" fill="#e3f2fd"/>
  <!-- Buildings background (distant, dark blue) -->
  <rect x="0"   y="220" width="45"  height="180" fill="#0d0d40"/>
  <rect x="40"  y="250" width="35"  height="150" fill="#0f0f4a"/>
  <rect x="70"  y="200" width="50"  height="200" fill="#0d0d40"/>
  <rect x="110" y="230" width="40"  height="170" fill="#0f0f4a"/>
  <rect x="145" y="190" width="55"  height="210" fill="#0d0d40"/>
  <rect x="190" y="215" width="45"  height="185" fill="#0f0f4a"/>
  <rect x="230" y="175" width="50"  height="225" fill="#0d0d40"/>
  <rect x="275" y="200" width="40"  height="200" fill="#0f0f4a"/>
  <rect x="310" y="185" width="55"  height="215" fill="#0d0d40"/>
  <rect x="360" y="210" width="45"  height="190" fill="#0f0f4a"/>
  <rect x="400" y="195" width="50"  height="205" fill="#0d0d40"/>
  <rect x="445" y="220" width="40"  height="180" fill="#0f0f4a"/>
  <rect x="480" y="200" width="55"  height="200" fill="#0d0d40"/>
  <rect x="530" y="230" width="40"  height="170" fill="#0f0f4a"/>
  <rect x="560" y="210" width="40"  height="190" fill="#0d0d40"/>
  <!-- Building windows (small neon dots) - background -->
  <rect x="10" y="240" width="5" height="4" fill="#00bcd4" opacity="0.7" rx="1"/>
  <rect x="20" y="260" width="5" height="4" fill="#e91e63" opacity="0.6" rx="1"/>
  <rect x="10" y="275" width="5" height="4" fill="#00bcd4" opacity="0.5" rx="1"/>
  <rect x="20" y="290" width="5" height="4" fill="#ffeb3b" opacity="0.6" rx="1"/>
  <rect x="80" y="215" width="6" height="4" fill="#e91e63" opacity="0.7" rx="1"/>
  <rect x="92" y="230" width="6" height="4" fill="#00bcd4" opacity="0.6" rx="1"/>
  <rect x="80" y="248" width="6" height="4" fill="#ffeb3b" opacity="0.6" rx="1"/>
  <rect x="92" y="262" width="6" height="4" fill="#4caf50" opacity="0.7" rx="1"/>
  <!-- Main buildings foreground -->
  <rect x="0"   y="300" width="60"  height="300" fill="#070720"/>
  <rect x="55"  y="270" width="70"  height="330" fill="#090930"/>
  <rect x="120" y="240" width="55"  height="360" fill="#070720"/>
  <rect x="170" y="280" width="65"  height="320" fill="#0a0a35"/>
  <rect x="230" y="220" width="75"  height="380" fill="#070720"/>
  <rect x="300" y="250" width="60"  height="350" fill="#090930"/>
  <rect x="355" y="215" width="70"  height="385" fill="#070720"/>
  <rect x="420" y="260" width="65"  height="340" fill="#0a0a35"/>
  <rect x="480" y="235" width="60"  height="365" fill="#070720"/>
  <rect x="535" y="275" width="65"  height="325" fill="#090930"/>
  <!-- Neon signs and windows (colorful) -->
  <!-- Building 1 windows -->
  <rect x="8"   y="315" width="8" height="6" fill="#00bcd4" opacity="0.9" rx="1"/>
  <rect x="22"  y="315" width="8" height="6" fill="#00bcd4" opacity="0.7" rx="1"/>
  <rect x="8"   y="330" width="8" height="6" fill="#e91e63" opacity="0.8" rx="1"/>
  <rect x="22"  y="330" width="8" height="6" fill="#ffeb3b" opacity="0.7" rx="1"/>
  <rect x="36"  y="315" width="8" height="6" fill="#e91e63" opacity="0.6" rx="1"/>
  <rect x="8"   y="348" width="8" height="6" fill="#ffeb3b" opacity="0.8" rx="1"/>
  <rect x="22"  y="348" width="8" height="6" fill="#00bcd4" opacity="0.7" rx="1"/>
  <rect x="36"  y="348" width="8" height="6" fill="#4caf50" opacity="0.7" rx="1"/>
  <!-- Building 2 windows -->
  <rect x="63"  y="285" width="9" height="7" fill="#e91e63" opacity="0.9" rx="1"/>
  <rect x="78"  y="285" width="9" height="7" fill="#00bcd4" opacity="0.8" rx="1"/>
  <rect x="93"  y="285" width="9" height="7" fill="#ffeb3b" opacity="0.7" rx="1"/>
  <rect x="63"  y="302" width="9" height="7" fill="#4caf50" opacity="0.8" rx="1"/>
  <rect x="78"  y="302" width="9" height="7" fill="#e91e63" opacity="0.7" rx="1"/>
  <rect x="93"  y="302" width="9" height="7" fill="#00bcd4" opacity="0.9" rx="1"/>
  <rect x="63"  y="320" width="9" height="7" fill="#ffeb3b" opacity="0.8" rx="1"/>
  <rect x="78"  y="320" width="9" height="7" fill="#4caf50" opacity="0.7" rx="1"/>
  <!-- Neon sign building 3 -->
  <rect x="128" y="255" width="38" height="18" fill="#e91e63" opacity="0.8" rx="2"/>
  <rect x="130" y="257" width="34" height="14" fill="#f06292" opacity="0.4" rx="2"/>
  <rect x="128" y="282" width="9" height="7" fill="#00bcd4" opacity="0.9" rx="1"/>
  <rect x="143" y="282" width="9" height="7" fill="#00bcd4" opacity="0.7" rx="1"/>
  <rect x="158" y="282" width="9" height="7" fill="#ffeb3b" opacity="0.8" rx="1"/>
  <rect x="128" y="298" width="9" height="7" fill="#e91e63" opacity="0.8" rx="1"/>
  <rect x="143" y="298" width="9" height="7" fill="#4caf50" opacity="0.7" rx="1"/>
  <!-- Tall building neon -->
  <rect x="238" y="230" width="58" height="25" fill="#00bcd4" opacity="0.6" rx="3"/>
  <rect x="240" y="232" width="54" height="21" fill="#00e5ff" opacity="0.3" rx="2"/>
  <rect x="238" y="265" width="10" height="8" fill="#ff4081" opacity="0.9" rx="1"/>
  <rect x="255" y="265" width="10" height="8" fill="#ff4081" opacity="0.7" rx="1"/>
  <rect x="272" y="265" width="10" height="8" fill="#ffea00" opacity="0.8" rx="1"/>
  <rect x="238" y="282" width="10" height="8" fill="#00e5ff" opacity="0.9" rx="1"/>
  <rect x="255" y="282" width="10" height="8" fill="#69f0ae" opacity="0.8" rx="1"/>
  <rect x="272" y="282" width="10" height="8" fill="#ff4081" opacity="0.7" rx="1"/>
  <rect x="238" y="300" width="10" height="8" fill="#ffea00" opacity="0.8" rx="1"/>
  <rect x="255" y="300" width="10" height="8" fill="#00e5ff" opacity="0.7" rx="1"/>
  <!-- More building windows -->
  <rect x="308" y="265" width="9" height="7" fill="#ff4081" opacity="0.9" rx="1"/>
  <rect x="323" y="265" width="9" height="7" fill="#00e5ff" opacity="0.8" rx="1"/>
  <rect x="338" y="265" width="9" height="7" fill="#69f0ae" opacity="0.7" rx="1"/>
  <rect x="308" y="282" width="9" height="7" fill="#ffea00" opacity="0.8" rx="1"/>
  <rect x="323" y="282" width="9" height="7" fill="#ff4081" opacity="0.9" rx="1"/>
  <rect x="363" y="228" width="55" height="20" fill="#69f0ae" opacity="0.5" rx="3"/>
  <rect x="363" y="255" width="9" height="7" fill="#00e5ff" opacity="0.9" rx="1"/>
  <rect x="378" y="255" width="9" height="7" fill="#ff4081" opacity="0.8" rx="1"/>
  <rect x="393" y="255" width="9" height="7" fill="#ffea00" opacity="0.7" rx="1"/>
  <rect x="363" y="272" width="9" height="7" fill="#69f0ae" opacity="0.9" rx="1"/>
  <rect x="378" y="272" width="9" height="7" fill="#00e5ff" opacity="0.7" rx="1"/>
  <rect x="428" y="272" width="9" height="7" fill="#ff4081" opacity="0.8" rx="1"/>
  <rect x="443" y="272" width="9" height="7" fill="#ffea00" opacity="0.7" rx="1"/>
  <rect x="458" y="272" width="9" height="7" fill="#00e5ff" opacity="0.9" rx="1"/>
  <rect x="488" y="248" width="44" height="18" fill="#ff4081" opacity="0.6" rx="2"/>
  <rect x="488" y="272" width="9" height="7" fill="#00e5ff" opacity="0.9" rx="1"/>
  <rect x="503" y="272" width="9" height="7" fill="#69f0ae" opacity="0.8" rx="1"/>
  <rect x="518" y="272" width="9" height="7" fill="#ffea00" opacity="0.7" rx="1"/>
  <rect x="543" y="288" width="9" height="7" fill="#ff4081" opacity="0.9" rx="1"/>
  <rect x="558" y="288" width="9" height="7" fill="#00e5ff" opacity="0.8" rx="1"/>
  <rect x="573" y="288" width="9" height="7" fill="#69f0ae" opacity="0.7" rx="1"/>
  <!-- Water reflection -->
  <rect y="470" width="600" height="130" fill="url(#water5)"/>
  <!-- Reflection lights -->
  <rect x="8"   y="480" width="4" height="25" fill="#00bcd4" opacity="0.25" rx="1"/>
  <rect x="22"  y="490" width="4" height="20" fill="#e91e63" opacity="0.2" rx="1"/>
  <rect x="63"  y="475" width="4" height="30" fill="#e91e63" opacity="0.25" rx="1"/>
  <rect x="78"  y="485" width="4" height="22" fill="#00bcd4" opacity="0.2" rx="1"/>
  <rect x="238" y="472" width="5" height="35" fill="#00e5ff" opacity="0.3" rx="1"/>
  <rect x="255" y="480" width="5" height="28" fill="#ff4081" opacity="0.25" rx="1"/>
  <rect x="363" y="475" width="5" height="32" fill="#69f0ae" opacity="0.25" rx="1"/>
  <rect x="488" y="478" width="5" height="28" fill="#ff4081" opacity="0.2" rx="1"/>
  <!-- Reflection shimmer lines -->
  <rect x="0"  y="490" width="600" height="1" fill="#1a1a6e" opacity="0.4"/>
  <rect x="0"  y="505" width="600" height="1" fill="#1a1a6e" opacity="0.3"/>
  <rect x="0"  y="520" width="600" height="1" fill="#1a1a6e" opacity="0.25"/>
  <rect x="0"  y="535" width="600" height="1" fill="#1a1a6e" opacity="0.2"/>
</svg>
